<mxfile host="65bd71144e">
    <diagram id="GcgQ1fS2KKoojIOdASFz" name="PÃ¡gina-1">
        <mxGraphModel dx="2036" dy="1414" grid="1" gridSize="10" guides="1" tooltips="1" connect="1" arrows="1" fold="1" page="1" pageScale="1" pageWidth="827" pageHeight="1169" math="0" shadow="0">
            <root>
                <mxCell id="0"/>
                <mxCell id="1" parent="0"/>
                <mxCell id="11" style="edgeStyle=none;html=1;exitX=0;exitY=0.5;exitDx=0;exitDy=0;entryX=1;entryY=0.5;entryDx=0;entryDy=0;" edge="1" parent="1" source="6" target="13">
                    <mxGeometry relative="1" as="geometry">
                        <mxPoint x="10" y="256" as="targetPoint"/>
                    </mxGeometry>
                </mxCell>
                <mxCell id="12" style="edgeStyle=none;html=1;exitX=0;exitY=0.5;exitDx=0;exitDy=0;entryX=1;entryY=0.5;entryDx=0;entryDy=0;" edge="1" parent="1" source="7" target="14">
                    <mxGeometry relative="1" as="geometry">
                        <mxPoint x="50" y="296" as="targetPoint"/>
                    </mxGeometry>
                </mxCell>
                <mxCell id="18" style="edgeStyle=none;html=1;" edge="1" parent="1" source="8" target="16">
                    <mxGeometry relative="1" as="geometry"/>
                </mxCell>
                <mxCell id="19" style="edgeStyle=none;html=1;entryX=1;entryY=0.5;entryDx=0;entryDy=0;" edge="1" parent="1" source="9" target="15">
                    <mxGeometry relative="1" as="geometry"/>
                </mxCell>
                <mxCell id="20" style="edgeStyle=none;html=1;entryX=1;entryY=0.5;entryDx=0;entryDy=0;" edge="1" parent="1" source="10" target="17">
                    <mxGeometry relative="1" as="geometry"/>
                </mxCell>
                <mxCell id="24" style="edgeStyle=none;html=1;" edge="1" parent="1" source="22" target="23">
                    <mxGeometry relative="1" as="geometry"/>
                </mxCell>
                <mxCell id="26" value="" style="shape=ext;double=1;rounded=0;whiteSpace=wrap;html=1;fontSize=15;" vertex="1" parent="1">
                    <mxGeometry x="850" y="140" width="1600" height="900" as="geometry"/>
                </mxCell>
                <mxCell id="27" value="" style="rounded=0;whiteSpace=wrap;html=1;fontSize=15;fillColor=#b1ddf0;strokeColor=#0e1010;opacity=20;" vertex="1" parent="1">
                    <mxGeometry x="850" y="140" width="400" height="900" as="geometry"/>
                </mxCell>
                <mxCell id="28" value="LOG OUT" style="rounded=1;whiteSpace=wrap;html=1;fontSize=15;opacity=30;fillColor=#e51400;strokeColor=#B20000;fontColor=#ffffff;fontStyle=0" vertex="1" parent="1">
                    <mxGeometry x="980" y="937.5" width="140" height="45" as="geometry"/>
                </mxCell>
                <mxCell id="37" value="" style="rounded=1;whiteSpace=wrap;html=1;fontSize=20;fillColor=#b0e3e6;strokeColor=#0e8088;opacity=20;" vertex="1" parent="1">
                    <mxGeometry x="1330" y="930" width="1040" height="60" as="geometry"/>
                </mxCell>
                <mxCell id="38" value="" style="triangle;whiteSpace=wrap;html=1;strokeColor=#10739E;fontSize=20;fillColor=#10739E;" vertex="1" parent="1">
                    <mxGeometry x="2320" y="941.5" width="30" height="37" as="geometry"/>
                </mxCell>
                <mxCell id="39" value="" style="rounded=1;whiteSpace=wrap;html=1;fontSize=20;fillColor=#b0e3e6;strokeColor=#0e8088;opacity=20;" vertex="1" parent="1">
                    <mxGeometry x="1370" y="240" width="460" height="270" as="geometry"/>
                </mxCell>
                <mxCell id="40" value="" style="rounded=1;whiteSpace=wrap;html=1;fontSize=20;fillColor=#fad9d5;strokeColor=#ae4132;opacity=20;" vertex="1" parent="1">
                    <mxGeometry x="1860" y="530" width="460" height="150" as="geometry"/>
                </mxCell>
                <mxCell id="5" value="Saludo, Que deseas hacer hoy:" style="text;html=1;strokeColor=none;fillColor=none;align=center;verticalAlign=middle;whiteSpace=wrap;rounded=0;" vertex="1" parent="1">
                    <mxGeometry x="1410" y="239" width="190" height="30" as="geometry"/>
                </mxCell>
                <mxCell id="41" style="edgeStyle=none;html=1;exitX=0;exitY=0.5;exitDx=0;exitDy=0;entryX=1;entryY=0.5;entryDx=0;entryDy=0;fontSize=12;" edge="1" parent="1" source="6" target="13">
                    <mxGeometry relative="1" as="geometry"/>
                </mxCell>
                <mxCell id="6" value="Debo hacer facturacion electronica" style="rounded=0;whiteSpace=wrap;html=1;align=left;verticalAlign=middle;fontSize=12;" vertex="1" parent="1">
                    <mxGeometry x="1410" y="269" width="300" height="31" as="geometry"/>
                </mxCell>
                <mxCell id="42" style="edgeStyle=none;html=1;fontSize=12;" edge="1" parent="1" source="7" target="14">
                    <mxGeometry relative="1" as="geometry"/>
                </mxCell>
                <mxCell id="7" value="Que documentos nececito" style="rounded=0;whiteSpace=wrap;html=1;align=left;verticalAlign=middle;fontSize=12;" vertex="1" parent="1">
                    <mxGeometry x="1410" y="309" width="300" height="31" as="geometry"/>
                </mxCell>
                <mxCell id="43" style="edgeStyle=none;html=1;fontSize=12;" edge="1" parent="1" source="8" target="16">
                    <mxGeometry relative="1" as="geometry"/>
                </mxCell>
                <mxCell id="8" value="Que requisitos tiene la facturacion electronica" style="rounded=0;whiteSpace=wrap;html=1;align=left;verticalAlign=middle;fontSize=12;" vertex="1" parent="1">
                    <mxGeometry x="1410" y="349" width="300" height="31" as="geometry"/>
                </mxCell>
                <mxCell id="44" style="edgeStyle=none;html=1;fontSize=12;" edge="1" parent="1" source="9" target="15">
                    <mxGeometry relative="1" as="geometry"/>
                </mxCell>
                <mxCell id="9" value="Cuales son los plazos de la facturacion electronica" style="rounded=0;whiteSpace=wrap;html=1;align=left;verticalAlign=middle;fontSize=12;" vertex="1" parent="1">
                    <mxGeometry x="1410" y="388.5" width="300" height="31" as="geometry"/>
                </mxCell>
                <mxCell id="45" style="edgeStyle=none;html=1;fontSize=12;" edge="1" parent="1" source="10" target="17">
                    <mxGeometry relative="1" as="geometry"/>
                </mxCell>
                <mxCell id="10" value="Que beneficios tiene la facturacion electronica" style="rounded=0;whiteSpace=wrap;html=1;align=left;verticalAlign=middle;fontSize=12;" vertex="1" parent="1">
                    <mxGeometry x="1410" y="429" width="300" height="31" as="geometry"/>
                </mxCell>
                <mxCell id="13" value="obligatoriedad_collection" style="rounded=1;whiteSpace=wrap;html=1;" vertex="1" parent="1">
                    <mxGeometry x="965" y="259.5" width="170" height="31" as="geometry"/>
                </mxCell>
                <mxCell id="14" value="document_collection" style="rounded=1;whiteSpace=wrap;html=1;" vertex="1" parent="1">
                    <mxGeometry x="965" y="299.5" width="170" height="31" as="geometry"/>
                </mxCell>
                <mxCell id="15" value="plazos_collection" style="rounded=1;whiteSpace=wrap;html=1;" vertex="1" parent="1">
                    <mxGeometry x="965" y="379" width="170" height="31" as="geometry"/>
                </mxCell>
                <mxCell id="16" value="requeriments_collection" style="rounded=1;whiteSpace=wrap;html=1;" vertex="1" parent="1">
                    <mxGeometry x="965" y="339.5" width="170" height="31" as="geometry"/>
                </mxCell>
                <mxCell id="17" value="beneficios_collection" style="rounded=1;whiteSpace=wrap;html=1;" vertex="1" parent="1">
                    <mxGeometry x="965" y="419.5" width="170" height="31" as="geometry"/>
                </mxCell>
                <mxCell id="21" value="COLLECTIONS" style="text;html=1;strokeColor=none;fillColor=none;align=center;verticalAlign=middle;whiteSpace=wrap;rounded=0;" vertex="1" parent="1">
                    <mxGeometry x="1020" y="200" width="60" height="30" as="geometry"/>
                </mxCell>
                <mxCell id="46" style="edgeStyle=none;html=1;fontSize=12;" edge="1" parent="1" source="22" target="23">
                    <mxGeometry relative="1" as="geometry"/>
                </mxCell>
                <mxCell id="22" value="Otro..." style="rounded=0;whiteSpace=wrap;html=1;align=left;verticalAlign=middle;fontSize=12;" vertex="1" parent="1">
                    <mxGeometry x="1410" y="469" width="300" height="31" as="geometry"/>
                </mxCell>
                <mxCell id="23" value="all_collections" style="rounded=1;whiteSpace=wrap;html=1;" vertex="1" parent="1">
                    <mxGeometry x="965" y="459.5" width="170" height="31" as="geometry"/>
                </mxCell>
            </root>
        </mxGraphModel>
    </diagram>
</mxfile>